<?xml version="1.0" standalone="no"?>
<!DOCTYPE svg PUBLIC "-//W3C//DTD SVG 20010904//EN"
 "http://www.w3.org/TR/2001/REC-SVG-20010904/DTD/svg10.dtd">
<svg version="1.0" xmlns="http://www.w3.org/2000/svg"
 width="200.000000pt" height="200.000000pt" viewBox="0 0 200.000000 200.000000"
 preserveAspectRatio="xMidYMid meet">
<metadata>
Created by potrace 1.11, written by Peter Selinger 2001-2013
</metadata>
<g transform="translate(0.000000,200.000000) scale(0.100000,-0.100000)"
fill="#000000" stroke="none">
<path d="M1623 1770 c-31 -13 -46 -46 -39 -85 8 -40 24 -54 68 -61 66 -11 113
73 71 125 -21 24 -68 35 -100 21z"/>
<path d="M1524 1749 c-10 -17 13 -36 27 -22 12 12 4 33 -11 33 -5 0 -12 -5
-16 -11z"/>
<path d="M909 1736 c-2 -2 -22 -6 -44 -9 -154 -22 -333 -130 -445 -269 -66
-82 -115 -187 -147 -312 -10 -40 -12 -222 -2 -271 9 -47 8 -50 -18 -71 -22
-18 -28 -30 -28 -64 0 -53 32 -84 82 -78 31 4 35 0 64 -50 17 -30 65 -89 107
-131 146 -148 320 -219 527 -218 122 0 201 20 322 78 191 92 327 257 390 474
21 72 24 285 4 355 -39 143 -100 250 -200 351 -98 98 -204 159 -346 199 -38
11 -257 24 -266 16z"/>
<path d="M1718 1549 c-26 -15 -22 -48 7 -61 41 -19 75 28 43 60 -14 14 -27 15
-50 1z"/>
<path d="M232 1448 c-20 -20 -14 -48 13 -60 21 -9 29 -9 42 5 14 13 14 21 5
42 -12 27 -40 33 -60 13z"/>
<path d="M1592 508 c-32 -32 2 -79 43 -60 30 14 33 47 6 62 -25 13 -34 13 -49
-2z"/>
<path d="M468 275 c-8 -19 -8 -28 2 -40 15 -19 31 -19 55 -1 17 12 18 18 7 40
-15 34 -49 34 -64 1z"/>
</g>
</svg>
